<svg width="28" height="28" viewBox="0 0 16 28" fill="none" xmlns="http://www.w3.org/2000/svg">
<path fill-rule="evenodd" clip-rule="evenodd" d="M7.74866 5.30036L7.99997 5.5362L8.2513 5.30035C10.054 3.56484 12.959 3.56655 14.7595 5.30551C15.7136 6.22701 16.0517 7.41396 15.9936 8.55143C15.9361 9.67942 15.4901 10.7802 14.846 11.592C12.8967 14.0486 7.99997 18.155 7.99997 18.155C7.99997 18.155 3.10324 14.0486 1.15397 11.592C0.509871 10.7802 0.0638796 9.67942 0.00629838 8.55142C-0.0517663 7.41396 0.286361 6.22701 1.24048 5.30551C3.04099 3.56654 5.94598 3.56484 7.74866 5.30036ZM7.99997 16.8419C7.99997 16.8419 12.3249 13.1604 14.0626 10.9704C14.5829 10.3146 14.9484 9.41153 14.9949 8.50044C15.041 7.59883 14.7758 6.71153 14.0648 6.0248C12.6508 4.65913 10.3578 4.65839 8.94289 6.02265L8.93802 6.02734L7.99997 6.90758L7.05703 6.02269C5.64209 4.65843 3.3492 4.65912 1.93518 6.0248C1.22415 6.71153 0.958973 7.59883 1.005 8.50044C1.05151 9.41153 1.417 10.3146 1.93733 10.9704C3.67648 13.1622 7.99997 16.8419 7.99997 16.8419Z" fill="#36A2E0"/>
</svg>
