<svg width="87" height="87" viewBox="0 0 87 87" fill="none" xmlns="http://www.w3.org/2000/svg">
<circle cx="43.5" cy="43.5" r="42.5" stroke="url(#paint0_linear_248_58168)" stroke-width="2"/>
<g clip-path="url(#clip0_248_58168)">
<path d="M44 24C44 20.69 41.31 18 38 18C36.21 18 34.61 18.79 33.51 20.03C33.34 20.02 33.17 20 33 20C29.91 20 27.37 22.33 27.04 25.33C24.69 26.14 23 28.37 23 31C23 32.07 23.28 33.07 23.78 33.95C22.11 35.02 21 36.88 21 39C21 40.54 21.58 41.94 22.54 43C21.59 44.06 21 45.46 21 47C21 48.97 21.95 50.71 23.42 51.81C23.15 52.49 23 53.23 23 54C23 56.62 24.68 58.84 27.02 59.66C27.02 59.77 27 59.89 27 60C27 63.31 29.69 66 33 66C33.17 66 33.34 65.99 33.51 65.97C34.61 67.21 36.21 68 38 68C41.31 68 44 65.31 44 62" stroke="#00FFD1" stroke-width="2" stroke-linejoin="round"/>
<path d="M33.51 65.97C32.34 64.8 31.87 63.39 32 61.98" stroke="#00FFD1" stroke-width="2" stroke-linecap="round" stroke-linejoin="round"/>
<path d="M31 29C34.31 29 37 31.69 37 35" stroke="#00FFD1" stroke-opacity="0.25" stroke-width="2" stroke-linecap="round" stroke-linejoin="round"/>
<path d="M32 56C35.31 56 38 58.69 38 62" stroke="#00FFD1" stroke-opacity="0.25" stroke-width="2" stroke-linecap="round" stroke-linejoin="round"/>
<path d="M44 38C44 41.31 41.31 44 38 44" stroke="#00FFD1" stroke-opacity="0.25" stroke-width="2" stroke-linecap="round" stroke-linejoin="round"/>
<path d="M28.7599 41.49C26.4199 39.15 26.4199 35.35 28.7599 33" stroke="#00FFD1" stroke-opacity="0.25" stroke-width="2" stroke-linecap="round" stroke-linejoin="round"/>
<path d="M33.56 48.02C30.45 48.25 28 50.83 28 54" stroke="#00FFD1" stroke-opacity="0.25" stroke-width="2" stroke-linecap="round" stroke-linejoin="round"/>
<path d="M39.9998 24C36.7498 24 34.1098 26.59 34.0098 29.81" stroke="#00FFD1" stroke-opacity="0.25" stroke-width="2" stroke-linecap="round" stroke-linejoin="round"/>
<path d="M44 24C44 20.69 46.69 18 50 18C51.79 18 53.39 18.79 54.49 20.03C54.66 20.02 54.83 20 55 20C58.09 20 60.63 22.33 60.96 25.33C63.31 26.14 65 28.37 65 31C65 32.07 64.72 33.07 64.22 33.95C65.89 35.02 67 36.88 67 39C67 40.54 66.42 41.94 65.46 43C66.41 44.06 67 45.46 67 47C67 48.97 66.05 50.71 64.58 51.81C64.85 52.49 65 53.23 65 54C65 56.62 63.32 58.84 60.98 59.66C60.98 59.77 61 59.89 61 60C61 63.31 58.31 66 55 66C54.83 66 54.66 65.99 54.49 65.97C53.39 67.21 51.79 68 50 68C46.69 68 44 65.31 44 62V24Z" stroke="#00FFD1" stroke-width="2" stroke-linejoin="round"/>
<path d="M54.4902 65.97C55.6602 64.8 56.1302 63.39 56.0002 61.98" stroke="#00FFD1" stroke-width="2" stroke-linecap="round" stroke-linejoin="round"/>
<path d="M56 56C52.69 56 50 58.69 50 62" stroke="#00FFD1" stroke-opacity="0.25" stroke-width="2" stroke-linecap="round" stroke-linejoin="round"/>
<path d="M44 38C44 41.31 46.69 44 50 44" stroke="#00FFD1" stroke-opacity="0.25" stroke-width="2" stroke-linecap="round" stroke-linejoin="round"/>
<path d="M59.2402 41.49C61.5802 39.15 61.5802 35.35 59.2402 33" stroke="#00FFD1" stroke-opacity="0.25" stroke-width="2" stroke-linecap="round" stroke-linejoin="round"/>
<path d="M50 50C53.31 50 56 47.31 56 44" stroke="#00FFD1" stroke-opacity="0.25" stroke-width="2" stroke-linecap="round" stroke-linejoin="round"/>
<path d="M54.4399 48.02C57.5499 48.25 59.9999 50.83 59.9999 54" stroke="#00FFD1" stroke-opacity="0.25" stroke-width="2" stroke-linecap="round" stroke-linejoin="round"/>
<path d="M48 24C51.25 24 53.89 26.59 53.99 29.81" stroke="#00FFD1" stroke-opacity="0.25" stroke-width="2" stroke-linecap="round" stroke-linejoin="round"/>
<path d="M34 40C34 40 32 41 32 44C32 47.31 34.69 50 38 50" stroke="#00FFD1" stroke-opacity="0.25" stroke-width="2" stroke-linecap="round" stroke-linejoin="round"/>
<path d="M53 39C53 39 51 38 51 35C51 31.69 53.69 29 57 29" stroke="#00FFD1" stroke-opacity="0.25" stroke-width="2" stroke-linecap="round" stroke-linejoin="round"/>
</g>
<defs>
<linearGradient id="paint0_linear_248_58168" x1="15.5" y1="10.5" x2="71" y2="75.5" gradientUnits="userSpaceOnUse">
<stop stop-color="#00FFD1"/>
<stop offset="0.166667" stop-color="#00FFD1" stop-opacity="0.25"/>
<stop offset="0.833333" stop-color="#00FFD1" stop-opacity="0.25"/>
<stop offset="1" stop-color="#00FFD1"/>
</linearGradient>
<clipPath id="clip0_248_58168">
<rect width="48" height="52" fill="white" transform="translate(20 17)"/>
</clipPath>
</defs>
</svg>
