<svg width="28" height="28" viewBox="0 0 16 28" fill="none" xmlns="http://www.w3.org/2000/svg">
<path d="M7.5 11.5H6V10.5H7.5V11.5Z" fill="#36A2E0"/>
<path d="M6 14H7.5V13H6V14Z" fill="#36A2E0"/>
<path d="M10 14H8.5V13H10V14Z" fill="#36A2E0"/>
<path d="M8.5 16.5H10V15.5H8.5V16.5Z" fill="#36A2E0"/>
<path d="M12.5 16.5H11V15.5H12.5V16.5Z" fill="#36A2E0"/>
<path d="M11 14H12.5V13H11V14Z" fill="#36A2E0"/>
<path d="M5 14H3.5V13H5V14Z" fill="#36A2E0"/>
<path d="M3.5 16.5H5V15.5H3.5V16.5Z" fill="#36A2E0"/>
<path d="M7.5 16.5H6V15.5H7.5V16.5Z" fill="#36A2E0"/>
<path d="M8.5 11.5H10V10.5H8.5V11.5Z" fill="#36A2E0"/>
<path d="M12.5 11.5H11V10.5H12.5V11.5Z" fill="#36A2E0"/>
<path fill-rule="evenodd" clip-rule="evenodd" d="M5 5V4H4V5H1V19H15V5H12V4H11V5H5ZM11 6H5V7H4V6H2V8H14V6H12V7H11V6ZM2 9H14V18H2V9Z" fill="#36A2E0"/>
</svg>
