<svg width="87" height="87" viewBox="0 0 87 87" fill="none" xmlns="http://www.w3.org/2000/svg">
<circle cx="43.5" cy="43.5" r="42.5" stroke="url(#paint0_linear_248_58144)" stroke-width="2"/>
<g clip-path="url(#clip0_248_58144)">
<path d="M43 71C44.1046 71 45 70.1046 45 69C45 67.8954 44.1046 67 43 67C41.8954 67 41 67.8954 41 69C41 70.1046 41.8954 71 43 71Z" stroke="#00FFD1" stroke-width="2" stroke-linecap="round" stroke-linejoin="round"/>
<path d="M58 67C59.1046 67 60 66.1046 60 65C60 63.8954 59.1046 63 58 63C56.8954 63 56 63.8954 56 65C56 66.1046 56.8954 67 58 67Z" stroke="#00FFD1" stroke-width="2" stroke-linecap="round" stroke-linejoin="round"/>
<path d="M28 67C29.1046 67 30 66.1046 30 65C30 63.8954 29.1046 63 28 63C26.8954 63 26 63.8954 26 65C26 66.1046 26.8954 67 28 67Z" stroke="#00FFD1" stroke-width="2" stroke-linecap="round" stroke-linejoin="round"/>
<path d="M68 45C69.1046 45 70 44.1046 70 43C70 41.8954 69.1046 41 68 41C66.8954 41 66 41.8954 66 43C66 44.1046 66.8954 45 68 45Z" stroke="#00FFD1" stroke-width="2" stroke-linecap="round" stroke-linejoin="round"/>
<path d="M64 59C65.1046 59 66 58.1046 66 57C66 55.8954 65.1046 55 64 55C62.8954 55 62 55.8954 62 57C62 58.1046 62.8954 59 64 59Z" stroke="#00FFD1" stroke-width="2" stroke-linecap="round" stroke-linejoin="round"/>
<path d="M64 31C65.1046 31 66 30.1046 66 29C66 27.8954 65.1046 27 64 27C62.8954 27 62 27.8954 62 29C62 30.1046 62.8954 31 64 31Z" stroke="#00FFD1" stroke-width="2" stroke-linecap="round" stroke-linejoin="round"/>
<path d="M64 55V49H60" stroke="#00FFD1" stroke-opacity="0.25" stroke-width="2" stroke-linecap="round" stroke-linejoin="round"/>
<path d="M18 45C19.1046 45 20 44.1046 20 43C20 41.8954 19.1046 41 18 41C16.8954 41 16 41.8954 16 43C16 44.1046 16.8954 45 18 45Z" stroke="#00FFD1" stroke-width="2" stroke-linecap="round" stroke-linejoin="round"/>
<path d="M22 59C23.1046 59 24 58.1046 24 57C24 55.8954 23.1046 55 22 55C20.8954 55 20 55.8954 20 57C20 58.1046 20.8954 59 22 59Z" stroke="#00FFD1" stroke-width="2" stroke-linecap="round" stroke-linejoin="round"/>
<path d="M43 45C44.1046 45 45 44.1046 45 43C45 41.8954 44.1046 41 43 41C41.8954 41 41 41.8954 41 43C41 44.1046 41.8954 45 43 45Z" stroke="#00FFD1" stroke-width="2" stroke-linecap="round" stroke-linejoin="round"/>
<path d="M22 31C23.1046 31 24 30.1046 24 29C24 27.8954 23.1046 27 22 27C20.8954 27 20 27.8954 20 29C20 30.1046 20.8954 31 22 31Z" stroke="#00FFD1" stroke-width="2" stroke-linecap="round" stroke-linejoin="round"/>
<path d="M22 31V37H26" stroke="#00FFD1" stroke-opacity="0.25" stroke-width="2" stroke-linecap="round" stroke-linejoin="round"/>
<path d="M47 55H54C55.1 55 56 54.1 56 53V43H66" stroke="#00FFD1" stroke-width="2" stroke-linecap="round" stroke-linejoin="round"/>
<path d="M56 65H50V56" stroke="#00FFD1" stroke-opacity="0.25" stroke-width="2" stroke-linecap="round" stroke-linejoin="round"/>
<path d="M56 39V35C56 33.9 55.1 33 54 33H32C30.9 33 30 33.9 30 35V43H20" stroke="#00FFD1" stroke-width="2" stroke-linecap="round" stroke-linejoin="round"/>
<path d="M64 31V37H56" stroke="#00FFD1" stroke-opacity="0.25" stroke-width="2" stroke-linecap="round" stroke-linejoin="round"/>
<path d="M30 47V53C30 54.1 30.9 55 32 55H43V67" stroke="#00FFD1" stroke-width="2" stroke-linecap="round" stroke-linejoin="round"/>
<path d="M22 55V49H30" stroke="#00FFD1" stroke-opacity="0.25" stroke-width="2" stroke-linecap="round" stroke-linejoin="round"/>
<path d="M30 65H36V59" stroke="#00FFD1" stroke-opacity="0.25" stroke-width="2" stroke-linecap="round" stroke-linejoin="round"/>
<path d="M35 33V25C35 20.58 38.58 17 43 17C47.42 17 51 20.58 51 25V33" stroke="#00FFD1" stroke-width="2" stroke-linecap="round" stroke-linejoin="round"/>
<path d="M43 49V45" stroke="#00FFD1" stroke-width="2" stroke-linecap="round" stroke-linejoin="round"/>
</g>
<defs>
<linearGradient id="paint0_linear_248_58144" x1="15.5" y1="10.5" x2="71" y2="75.5" gradientUnits="userSpaceOnUse">
<stop stop-color="#00FFD1"/>
<stop offset="0.166667" stop-color="#00FFD1" stop-opacity="0.25"/>
<stop offset="0.833333" stop-color="#00FFD1" stop-opacity="0.25"/>
<stop offset="1" stop-color="#00FFD1"/>
</linearGradient>
<clipPath id="clip0_248_58144">
<rect width="56" height="56" fill="white" transform="translate(15 16)"/>
</clipPath>
</defs>
</svg>
