<?xml version="1.0" encoding="utf-8"?>
<!-- Generator: Adobe Illustrator 22.1.0, SVG Export Plug-In . SVG Version: 6.00 Build 0)  -->
<svg version="1.1" id="Layer_1" xmlns="http://www.w3.org/2000/svg" xmlns:xlink="http://www.w3.org/1999/xlink" x="0px" y="0px"
	 viewBox="0 0 18 18" style="enable-background:new 0 0 18 18;" xml:space="preserve">
<style type="text/css">
	.st0{fill:#0076CE;}
</style>
<g id="Art">
	<path class="st0" d="M9,10c2.4,0,4.4-2,4.4-4.4c0-2.4-2-4.4-4.4-4.4c-2.4,0-4.4,2-4.4,4.4C4.6,8.1,6.6,10,9,10z M9,2.3
		c1.8,0,3.3,1.5,3.3,3.3S10.8,8.9,9,8.9c-1.8,0-3.3-1.5-3.3-3.3C5.7,3.8,7.2,2.3,9,2.3z"/>
	<path class="st0" d="M16.9,16.2c-0.3-2.5-1.6-4.9-3.7-6.4l-0.4-0.3l-0.3,0.3c-2.1,1.7-5,1.7-7.1,0L5.1,9.6L4.8,9.8
		c-2.1,1.5-3.4,3.8-3.7,6.4L1,16.8h16L16.9,16.2z M2.2,15.7C2.6,13.9,3.6,12.2,5,11c2.4,1.7,5.5,1.7,7.9,0c1.4,1.2,2.4,2.9,2.8,4.7
		L2.2,15.7z"/>
</g>
</svg>
